<svg width="26" height="26" viewBox="0 0 26 26" fill="none" xmlns="http://www.w3.org/2000/svg">
<path fill-rule="evenodd" clip-rule="evenodd" d="M25.173 12.5892C25.1735 10.1838 24.4847 7.82855 23.1882 5.80242C21.8917 3.77628 20.0417 2.1641 17.8573 1.15678C15.6729 0.149454 13.2456 -0.210828 10.8628 0.118593C8.48002 0.448014 6.24152 1.45334 4.41237 3.01553C2.58322 4.57773 1.24003 6.63136 0.541842 8.93327C-0.156345 11.2352 -0.180288 13.6889 0.47285 16.004C1.12599 18.3191 2.42885 20.3986 4.22717 21.9962C6.02549 23.5938 8.24395 24.6426 10.6199 25.0184V16.2236H7.42604V12.5892H10.6199V9.82022C10.6199 6.65786 12.4921 4.92722 15.3713 4.92722C16.7558 4.92722 18.1875 5.16321 18.1875 5.16321V8.26264H16.5985C15.0409 8.26264 14.5531 9.23809 14.5531 10.2293V12.5892H18.0459L17.4795 16.2236H14.5531V25.0184C17.5132 24.5502 20.209 23.0411 22.1557 20.7627C24.1024 18.4843 25.1724 15.5861 25.173 12.5892Z" fill="#EE8E00"/>
</svg>
