<?xml version="1.0" encoding="utf-8"?>
<!-- Generator: Adobe Illustrator 27.1.1, SVG Export Plug-In . SVG Version: 6.00 Build 0)  -->
<svg version="1.1" id="Capa_1" xmlns="http://www.w3.org/2000/svg" xmlns:xlink="http://www.w3.org/1999/xlink" x="0px" y="0px"
	 viewBox="0 0 26 26" style="enable-background:new 0 0 26 26;" xml:space="preserve">
<style type="text/css">
	.st0{fill-rule:evenodd;clip-rule:evenodd;fill:#FFFFFF;}
</style>
<path class="st0" d="M25.2,12.6c0-2.4-0.7-4.8-2-6.8c-1.3-2-3.1-3.6-5.3-4.6c-2.2-1-4.6-1.4-7-1C8.5,0.4,6.2,1.5,4.4,3
	C2.6,4.6,1.2,6.6,0.5,8.9c-0.7,2.3-0.7,4.8-0.1,7.1c0.7,2.3,2,4.4,3.8,6c1.8,1.6,4,2.6,6.4,3v-8.8H7.4v-3.6h3.2V9.8
	c0-3.2,1.9-4.9,4.8-4.9c1.4,0,2.8,0.2,2.8,0.2v3.1h-1.6c-1.6,0-2,1-2,2v2.4H18l-0.6,3.6h-2.9V25c3-0.5,5.7-2,7.6-4.3
	S25.2,15.6,25.2,12.6z"/>
</svg>
