<svg width="22" height="22" viewBox="0 0 22 22" fill="none" xmlns="http://www.w3.org/2000/svg">
<path d="M4.28188 0C1.91946 0 0 1.91946 0 4.13423V17.7181C0 20.0805 1.91946 22 4.28188 22H17.7181C20.0805 22 22 20.0805 22 17.7181V4.28188C21.8523 1.91946 20.0805 0 17.7181 0H4.28188ZM18.8993 2.51007H19.3423V6.20134H15.651V2.51007H18.8993ZM7.8255 8.71141C9.00671 6.9396 11.5168 6.6443 13.1409 7.8255C14.1745 8.56376 14.7651 9.74497 14.7651 10.9262C14.9128 12.9933 13.2886 14.9128 11.2215 15.0604C9.15436 15.2081 7.2349 13.5839 7.08725 11.5168C7.08725 11.3691 7.08725 11.2215 7.08725 11.0738C7.08725 10.0403 7.38255 9.30201 7.8255 8.71141ZM19.7852 17.7181C19.7852 18.8993 18.8993 19.7852 17.7181 19.7852H4.28188C3.10067 19.7852 2.21477 18.8993 2.21477 17.7181V8.71141H5.46309C4.28188 11.8121 5.61074 15.2081 8.71141 16.5369C11.8121 17.7181 15.2081 16.3893 16.5369 13.2886C17.1275 11.8121 17.1275 10.1879 16.5369 8.71141H19.7852V17.7181Z" fill="#EE8E00"/>
</svg>
