<?xml version="1.0" encoding="utf-8"?>
<!-- Generator: Adobe Illustrator 27.1.1, SVG Export Plug-In . SVG Version: 6.00 Build 0)  -->
<svg version="1.1" id="Capa_1" xmlns="http://www.w3.org/2000/svg" xmlns:xlink="http://www.w3.org/1999/xlink" x="0px" y="0px"
	 viewBox="0 0 22 22" style="enable-background:new 0 0 22 22;" xml:space="preserve">
<style type="text/css">
	.st0{fill:#FFFFFF;}
</style>
<path class="st0" d="M4.3,0C1.9,0,0,1.9,0,4.1v13.6C0,20.1,1.9,22,4.3,22h13.4c2.4,0,4.3-1.9,4.3-4.3V4.3C21.9,1.9,20.1,0,17.7,0
	H4.3z M18.9,2.5h0.4v3.7h-3.7V2.5H18.9z M7.8,8.7c1.2-1.8,3.7-2.1,5.3-0.9c1,0.7,1.6,1.9,1.6,3.1c0.1,2.1-1.5,4-3.5,4.1
	c-2.1,0.1-4-1.5-4.1-3.5c0-0.1,0-0.3,0-0.4C7.1,10,7.4,9.3,7.8,8.7z M19.8,17.7c0,1.2-0.9,2.1-2.1,2.1H4.3c-1.2,0-2.1-0.9-2.1-2.1
	v-9h3.2c-1.2,3.1,0.1,6.5,3.2,7.8c3.1,1.2,6.5-0.1,7.8-3.2c0.6-1.5,0.6-3.1,0-4.6h3.2V17.7z"/>
</svg>
