<svg width="239" height="246" viewBox="0 0 239 246" fill="none" xmlns="http://www.w3.org/2000/svg">
<g clip-path="url(#clip0_303_366)">
<path d="M238.003 107.742V224.111C217.145 218.432 197.325 211.471 182.278 195.463C172.453 185.011 168.098 172.407 169.555 157.994C169.72 156.355 170.161 154.744 170.886 153.188C171.37 157.263 171.594 161.389 172.388 165.402C174.342 175.275 179.654 183.245 187.064 189.892C197.417 199.179 209.783 204.755 222.785 209.135C223.12 209.248 223.537 209.118 224.472 209.076V204.503C224.472 175.166 224.588 145.828 224.35 116.493C224.313 112.052 225.667 110.15 229.881 109.616C232.446 109.291 234.947 108.467 238.003 107.742Z" fill="white"/>
<path d="M196.305 246.286H35.0807V232.886H154.09C152.483 230.902 151.608 229.765 150.674 228.678C139.033 215.131 132.074 199.798 133.961 181.589C136.014 161.783 144.871 145.155 159.226 131.471C177.229 114.311 199.174 104.347 222.709 97.587C232.377 94.8102 242.287 92.8439 252.134 90.7313C257.977 89.4779 257.979 89.6729 257.964 83.869C257.898 57.681 257.856 31.4929 257.805 5.30486C257.803 4.1427 257.805 2.98055 257.805 1.48193H271.156C271.23 2.82462 271.361 4.0862 271.362 5.34777C271.373 35.9897 271.323 66.6319 271.44 97.2734C271.453 100.521 270.648 101.789 267.242 102.234C243.098 105.387 219.601 111.022 197.57 121.714C181.913 129.311 168.025 139.228 158.232 153.947C141.093 179.706 144.056 205.186 167.177 225.693C174.552 232.235 183.329 237.203 191.507 242.83C193.091 243.921 194.871 244.728 196.561 245.666C196.476 245.873 196.391 246.079 196.305 246.286Z" fill="white"/>
<path d="M64.6046 13.7896C67.1887 15.3733 69.9615 16.7178 72.3263 18.5799C87.0115 30.1434 89.9927 52.6235 78.3118 67.1874C59.4714 90.6782 34.7506 102.035 4.59566 101.441C3.60405 101.422 2.617 101.169 0.891602 100.918C5.171 95.6085 8.69964 90.386 13.1337 86.0992C15.2313 84.0712 18.9929 83.2542 22.1187 82.883C37.5872 81.0458 50.6869 74.5044 61.4344 63.4093C72.6275 51.8542 74.5122 33.2224 66.3018 18.9094C65.4916 17.4972 64.6464 16.1051 63.8175 14.7036C64.0798 14.3989 64.3422 14.0943 64.6046 13.7896Z" fill="white"/>
<path d="M126.478 37.8146C110.322 18.033 89.746 6.30865 64.0969 2.93599C69.5532 -1.22552 85.7017 -0.53956 97.3532 4.35939C112.452 10.7078 122.348 21.8044 126.478 37.8146Z" fill="white"/>
</g>
<defs>
<clipPath id="clip0_303_366">
<rect width="237.217" height="245.492" fill="white" transform="translate(0.891663 0.204102)"/>
</clipPath>
</defs>
</svg>
