<svg width="24" height="29" viewBox="0 0 24 29" fill="none" xmlns="http://www.w3.org/2000/svg">
<path d="M8.33337 28.2666C8.21456 28.2542 8.09611 28.237 7.97703 28.23C6.36046 28.1343 4.74235 28.0601 3.12777 27.9392C2.46182 27.8892 1.83149 27.6227 1.33553 27.1815C0.839571 26.7403 0.506004 26.1492 0.387089 25.501C0.118648 24.1285 -0.00959415 22.733 0.0042883 21.3353C-0.00395858 19.9839 -0.00722112 18.6304 0.0613821 17.2816C0.112178 16.3434 0.228729 15.4099 0.410198 14.4876C0.540513 13.8122 0.90189 13.2014 1.43393 12.7573C1.96596 12.3132 2.63641 12.0627 3.33322 12.0476C7.80349 11.727 12.2884 11.6516 16.7671 11.8216C18.1718 11.8508 19.5778 11.9604 20.9767 12.0968C21.6274 12.162 22.2383 12.4361 22.7157 12.877C23.1931 13.3179 23.5106 13.9011 23.6195 14.5372C23.8827 15.8828 24.0092 17.2509 23.9972 18.6212C24.0063 19.9908 23.9944 21.3615 23.9472 22.7302C23.9389 23.7904 23.7899 24.8449 23.504 25.8669C23.3344 26.4266 22.9982 26.9231 22.5391 27.292C22.0799 27.6609 21.5189 27.8851 20.9289 27.9357C19.2956 28.0541 17.6592 28.133 16.0243 28.23C15.9052 28.2371 15.7867 28.2542 15.6679 28.2666H8.33337ZM13.9392 14.3284H12.5049V24.8983H13.9529V24.21C14.1795 24.4005 14.3631 24.584 14.5745 24.7276C14.7435 24.8772 14.9509 24.9781 15.174 25.0191C15.3972 25.0602 15.6275 25.0398 15.8397 24.9604C16.052 24.8809 16.2379 24.7453 16.3772 24.5685C16.5165 24.3917 16.6038 24.1805 16.6296 23.958C16.6805 23.7079 16.7092 23.4539 16.7154 23.1988C16.729 21.9302 16.7346 20.6616 16.732 19.3928C16.7341 18.9732 16.7107 18.5539 16.662 18.137C16.6602 17.8935 16.5864 17.6557 16.4496 17.453C16.3128 17.2502 16.119 17.0912 15.8919 16.9954C15.6649 16.8997 15.4144 16.8714 15.1713 16.914C14.9282 16.9567 14.703 17.0683 14.5232 17.2353C14.3281 17.3764 14.1532 17.5446 13.9396 17.7252L13.9392 14.3284ZM22.2213 21.2283C22.2213 20.6482 22.2304 20.1109 22.2176 19.5746C22.2123 19.2735 22.1835 18.9733 22.1314 18.6765C22.0929 18.4339 22.0179 18.1983 21.9087 17.9776C21.6704 17.5647 21.2984 17.2429 20.8523 17.0637C20.4063 16.8845 19.9121 16.8584 19.4492 16.9895C18.9863 17.1207 18.5815 17.4016 18.2999 17.7869C18.0183 18.1723 17.8761 18.6399 17.8963 19.1146C17.8756 20.338 17.8691 21.5627 17.9054 22.7854C17.9199 23.186 18.0171 23.5794 18.1908 23.9418C18.3891 24.3289 18.7097 24.6419 19.1043 24.8332C19.4989 25.0246 19.9459 25.084 20.3778 25.0024C20.6751 24.9843 20.9639 24.8974 21.2208 24.7486C21.4777 24.5999 21.6954 24.3936 21.8564 24.1464C22.1753 23.5483 22.3003 22.8681 22.2145 22.1976H20.7193C20.7193 22.479 20.7314 22.7429 20.7166 23.0052C20.7241 23.0923 20.7139 23.18 20.6865 23.2631C20.6592 23.3463 20.6152 23.4232 20.5573 23.4893C20.4994 23.5555 20.4287 23.6095 20.3493 23.6483C20.2699 23.6871 20.1834 23.7098 20.095 23.7152C20.004 23.7263 19.9117 23.7181 19.8241 23.6913C19.7366 23.6644 19.6559 23.6195 19.5873 23.5594C19.5188 23.4993 19.464 23.4256 19.4267 23.343C19.3894 23.2604 19.3703 23.1709 19.3708 23.0805C19.3277 22.4743 19.36 21.863 19.36 21.2284L22.2213 21.2283ZM7.06435 17.0277C7.06027 17.1046 7.05583 17.1493 7.05583 17.1939C7.05583 19.2301 7.05111 21.2662 7.06117 23.3023C7.06688 23.6487 7.10326 23.9939 7.16992 24.334C7.19814 24.5023 7.28074 24.657 7.40541 24.7751C7.53008 24.8932 7.69012 24.9684 7.86167 24.9895C8.06705 25.0267 8.27814 25.02 8.48067 24.9698C8.68319 24.9196 8.87244 24.8271 9.03562 24.6986C9.28584 24.5241 9.51122 24.3149 9.79171 24.0852V24.8995H11.2073V17.0385H9.7773V17.3589C9.7773 19.112 9.76234 20.8652 9.78899 22.6179C9.7976 22.7844 9.76471 22.9504 9.69321 23.1015C9.62171 23.2526 9.51376 23.384 9.37882 23.4844C9.1905 23.6401 8.97925 23.7878 8.72632 23.6833C8.47338 23.5788 8.51018 23.3235 8.50973 23.1085C8.50519 21.1912 8.50296 19.2738 8.50302 17.3564C8.50302 17.2501 8.50302 17.1438 8.50302 17.0277H7.06435ZM3.49254 15.8043V24.8977H5.11563V15.7939H6.81739V14.3208H1.79549V15.8047L3.49254 15.8043Z" fill="#EE8E00"/>
<path d="M3.19995 0.0130371H4.82002L5.91495 4.18534C6.02306 3.76752 6.11308 3.42714 6.19923 3.0856C6.4357 2.14469 6.67631 1.20502 6.90098 0.2609C6.95069 0.0521639 7.03795 -0.00799688 7.24109 0.000826703C7.66183 0.019276 8.08394 0.00644171 8.53328 0.00644171C8.3093 0.776143 8.09342 1.52294 7.87487 2.26893C7.49797 3.55566 7.11678 4.84123 6.7448 6.12947C6.70132 6.28593 6.67945 6.44796 6.67984 6.61076C6.67467 7.85765 6.677 9.10462 6.677 10.3515V10.6667H5.13497V10.3682C5.13497 9.37611 5.1056 8.38278 5.14359 7.39231C5.16241 6.50934 5.02636 5.63015 4.74206 4.79738C4.26472 3.29594 3.77558 1.79843 3.29152 0.299135C3.26404 0.214197 3.23708 0.12917 3.19995 0.0130371Z" fill="#EE8E00"/>
<path d="M17.2011 2.66687H18.6667V10.5559H17.2124V9.80181L17.1498 9.76526C17.0491 9.86117 16.9529 9.96204 16.8469 10.0521C16.6546 10.2579 16.4171 10.4198 16.1516 10.5257C15.8861 10.6316 15.5994 10.6789 15.3125 10.6643C15.1182 10.6551 14.9332 10.5818 14.7883 10.4568C14.6435 10.3317 14.5476 10.1625 14.5168 9.97739C14.4509 9.62104 14.414 9.26027 14.4064 8.89838C14.3961 6.87752 14.4013 4.85665 14.4016 2.8357C14.4016 2.79134 14.4061 2.74645 14.4097 2.67929H15.885C15.885 2.8035 15.885 2.91883 15.885 3.03417C15.8914 4.97341 15.8934 6.91256 15.9121 8.85162C15.9136 9.01345 15.9962 9.28422 16.097 9.31128C16.3014 9.35151 16.5141 9.31468 16.6912 9.20836C16.8578 9.11715 16.9948 8.98305 17.0869 8.82107C17.1789 8.65909 17.2224 8.47561 17.2124 8.29118C17.1839 6.53355 17.2006 4.77521 17.2006 3.01714L17.2011 2.66687Z" fill="#EE8E00"/>
<path d="M13.3333 6.6831C13.292 7.4384 13.293 8.19413 13.199 8.94074C13.1556 9.35137 12.9575 9.73789 12.6356 10.0398C12.3137 10.3418 11.8862 10.5421 11.42 10.6096C10.9259 10.716 10.4051 10.6734 9.94222 10.4887C9.47939 10.304 9.10178 9.98817 8.87083 9.59247C8.61335 9.08789 8.50037 8.53624 8.54163 7.98508C8.53466 6.93003 8.53456 5.87376 8.58335 4.82018C8.60051 4.44918 8.70288 4.08497 8.88437 3.74914C9.11335 3.34188 9.49909 3.01781 9.97417 2.83357C10.4492 2.64934 10.9834 2.61666 11.4833 2.74126C11.9359 2.82076 12.3471 3.02526 12.6562 3.3245C12.9652 3.62375 13.1557 4.00185 13.1994 4.40287C13.2922 5.15869 13.2922 5.92311 13.3333 6.6831ZM10.1663 6.65573H10.1549C10.1549 7.17018 10.1471 7.68472 10.1584 8.19899C10.1575 8.42932 10.1847 8.65908 10.2398 8.88435C10.2556 8.96611 10.291 9.04404 10.3438 9.11301C10.3965 9.18197 10.4654 9.24042 10.5459 9.28449C10.6264 9.32857 10.7167 9.35729 10.8108 9.36875C10.9049 9.38022 11.0007 9.37417 11.092 9.35101C11.2444 9.32404 11.3812 9.25123 11.4785 9.14528C11.5758 9.03932 11.6273 8.90695 11.6242 8.77122C11.6434 7.36298 11.6332 5.95439 11.627 4.54597C11.6166 4.4576 11.5851 4.37211 11.5347 4.29496C11.4846 4.19211 11.3996 4.10506 11.2913 4.04545C11.183 3.98585 11.0563 3.95652 10.9284 3.9614C10.8003 3.94995 10.6715 3.97499 10.5611 4.03279C10.4508 4.09059 10.3649 4.17803 10.3163 4.28201C10.2311 4.46153 10.1826 4.65266 10.1729 4.84677C10.1551 5.44941 10.1663 6.05265 10.1663 6.65573Z" fill="#EE8E00"/>
<path d="M13.8669 20.8058C13.8669 20.1085 13.8669 19.4112 13.8669 18.714C13.8669 18.4315 14.0044 18.2517 14.2815 18.1699C14.3828 18.1211 14.4959 18.1212 14.5972 18.1701C14.6984 18.219 14.7798 18.3129 14.8242 18.4321C14.8867 18.5916 14.9218 18.7644 14.9274 18.9404C14.9361 20.1851 14.9329 21.429 14.9315 22.6735C14.9295 22.7528 14.9212 22.8318 14.9066 22.9093C14.8641 23.1638 14.7813 23.3943 14.546 23.4547C14.4286 23.4793 14.3079 23.4659 14.1964 23.4157C14.0849 23.3655 13.9868 23.2805 13.9122 23.1694C13.8757 23.0956 13.8605 23.0094 13.8688 22.9242C13.8656 22.2181 13.8669 21.5119 13.8669 20.8058Z" fill="#EE8E00"/>
<path d="M20.8001 19.7334H19.2001C19.231 19.3548 19.2313 18.9874 19.299 18.6283C19.3059 18.5576 19.3301 18.4886 19.3701 18.4254C19.41 18.3623 19.465 18.3062 19.5319 18.2604C19.5987 18.2145 19.6761 18.1799 19.7595 18.1585C19.843 18.137 19.9308 18.1292 20.018 18.1354C20.1943 18.1345 20.3643 18.1882 20.4935 18.2856C20.6226 18.383 20.701 18.5167 20.7126 18.6593C20.7683 19.006 20.7719 19.3582 20.8001 19.7334Z" fill="#EE8E00"/>
</svg>
