<?xml version="1.0" encoding="utf-8"?>
<!-- Generator: Adobe Illustrator 27.1.1, SVG Export Plug-In . SVG Version: 6.00 Build 0)  -->
<svg version="1.1" id="Capa_1" xmlns="http://www.w3.org/2000/svg" xmlns:xlink="http://www.w3.org/1999/xlink" x="0px" y="0px"
	 viewBox="0 0 24 29" style="enable-background:new 0 0 24 29;" xml:space="preserve">
<style type="text/css">
	.st0{fill:#FFFFFF;}
</style>
<path class="st0" d="M8.3,28.3c-0.1,0-0.2,0-0.4,0c-1.6-0.1-3.2-0.2-4.8-0.3c-0.7,0-1.3-0.3-1.8-0.8c-0.5-0.4-0.8-1-0.9-1.7
	C0.1,24.1,0,22.7,0,21.3c0-1.4,0-2.7,0.1-4.1c0.1-0.9,0.2-1.9,0.3-2.8c0.1-0.7,0.5-1.3,1-1.7C2,12.3,2.6,12.1,3.3,12
	c4.5-0.3,9-0.4,13.4-0.2c1.4,0,2.8,0.1,4.2,0.3c0.7,0.1,1.3,0.3,1.7,0.8s0.8,1,0.9,1.7c0.3,1.3,0.4,2.7,0.4,4.1c0,1.4,0,2.7,0,4.1
	c0,1.1-0.2,2.1-0.4,3.1c-0.2,0.6-0.5,1.1-1,1.4c-0.5,0.4-1,0.6-1.6,0.6c-1.6,0.1-3.3,0.2-4.9,0.3c-0.1,0-0.2,0-0.4,0H8.3z
	 M13.9,14.3h-1.4v10.6H14v-0.7c0.2,0.2,0.4,0.4,0.6,0.5c0.2,0.1,0.4,0.3,0.6,0.3c0.2,0,0.5,0,0.7-0.1c0.2-0.1,0.4-0.2,0.5-0.4
	c0.1-0.2,0.2-0.4,0.3-0.6c0.1-0.3,0.1-0.5,0.1-0.8c0-1.3,0-2.5,0-3.8c0-0.4,0-0.8-0.1-1.3c0-0.2-0.1-0.5-0.2-0.7
	c-0.1-0.2-0.3-0.4-0.6-0.5c-0.2-0.1-0.5-0.1-0.7-0.1c-0.2,0-0.5,0.2-0.6,0.3c-0.2,0.1-0.4,0.3-0.6,0.5L13.9,14.3z M22.2,21.2
	c0-0.6,0-1.1,0-1.7c0-0.3,0-0.6-0.1-0.9c0-0.2-0.1-0.5-0.2-0.7c-0.2-0.4-0.6-0.7-1.1-0.9c-0.4-0.2-0.9-0.2-1.4-0.1
	c-0.5,0.1-0.9,0.4-1.1,0.8c-0.3,0.4-0.4,0.9-0.4,1.3c0,1.2,0,2.4,0,3.7c0,0.4,0.1,0.8,0.3,1.2c0.2,0.4,0.5,0.7,0.9,0.9
	c0.4,0.2,0.8,0.3,1.3,0.2c0.3,0,0.6-0.1,0.8-0.3c0.3-0.1,0.5-0.4,0.6-0.6c0.3-0.6,0.4-1.3,0.4-1.9h-1.5c0,0.3,0,0.5,0,0.8
	c0,0.1,0,0.2,0,0.3c0,0.1-0.1,0.2-0.1,0.2c-0.1,0.1-0.1,0.1-0.2,0.2c-0.1,0-0.2,0.1-0.3,0.1c-0.1,0-0.2,0-0.3,0
	c-0.1,0-0.2-0.1-0.2-0.1c-0.1-0.1-0.1-0.1-0.2-0.2s-0.1-0.2-0.1-0.3c0-0.6,0-1.2,0-1.9L22.2,21.2z M7.1,17c0,0.1,0,0.1,0,0.2
	c0,2,0,4.1,0,6.1c0,0.3,0,0.7,0.1,1c0,0.2,0.1,0.3,0.2,0.4C7.5,24.9,7.7,25,7.9,25c0.2,0,0.4,0,0.6,0c0.2-0.1,0.4-0.1,0.6-0.3
	c0.3-0.2,0.5-0.4,0.8-0.6v0.8h1.4V17H9.8v0.3c0,1.8,0,3.5,0,5.3c0,0.2,0,0.3-0.1,0.5c-0.1,0.2-0.2,0.3-0.3,0.4
	c-0.2,0.2-0.4,0.3-0.7,0.2c-0.3-0.1-0.2-0.4-0.2-0.6c0-1.9,0-3.8,0-5.8c0-0.1,0-0.2,0-0.3H7.1z M3.5,15.8v9.1h1.6v-9.1h1.7v-1.5h-5
	v1.5L3.5,15.8z"/>
<path class="st0" d="M3.2,0h1.6l1.1,4.2C6,3.8,6.1,3.4,6.2,3.1c0.2-0.9,0.5-1.9,0.7-2.8C7,0.1,7,0,7.2,0c0.4,0,0.8,0,1.3,0
	C8.3,0.8,8.1,1.5,7.9,2.3C7.5,3.6,7.1,4.8,6.7,6.1c0,0.2-0.1,0.3-0.1,0.5c0,1.2,0,2.5,0,3.7v0.3H5.1v-0.3c0-1,0-2,0-3
	c0-0.9-0.1-1.8-0.4-2.6c-0.5-1.5-1-3-1.5-4.5C3.3,0.2,3.2,0.1,3.2,0z"/>
<path class="st0" d="M17.2,2.7h1.5v7.9h-1.5V9.8l-0.1,0C17,9.9,17,10,16.8,10.1c-0.2,0.2-0.4,0.4-0.7,0.5c-0.3,0.1-0.6,0.2-0.8,0.1
	c-0.2,0-0.4-0.1-0.5-0.2c-0.1-0.1-0.2-0.3-0.3-0.5c-0.1-0.4-0.1-0.7-0.1-1.1c0-2,0-4,0-6.1c0,0,0-0.1,0-0.2h1.5c0,0.1,0,0.2,0,0.4
	c0,1.9,0,3.9,0,5.8c0,0.2,0.1,0.4,0.2,0.5c0.2,0,0.4,0,0.6-0.1C16.9,9.1,17,9,17.1,8.8c0.1-0.2,0.1-0.3,0.1-0.5c0-1.8,0-3.5,0-5.3
	L17.2,2.7z"/>
<path class="st0" d="M13.3,6.7c0,0.8,0,1.5-0.1,2.3c0,0.4-0.2,0.8-0.6,1.1c-0.3,0.3-0.7,0.5-1.2,0.6c-0.5,0.1-1,0.1-1.5-0.1
	C9.5,10.3,9.1,10,8.9,9.6C8.6,9.1,8.5,8.5,8.5,8c0-1.1,0-2.1,0-3.2c0-0.4,0.1-0.7,0.3-1.1C9.1,3.3,9.5,3,10,2.8
	c0.5-0.2,1-0.2,1.5-0.1c0.5,0.1,0.9,0.3,1.2,0.6C13,3.6,13.2,4,13.2,4.4C13.3,5.2,13.3,5.9,13.3,6.7z M10.2,6.7L10.2,6.7
	c0,0.5,0,1,0,1.5c0,0.2,0,0.5,0.1,0.7c0,0.1,0.1,0.2,0.1,0.2c0.1,0.1,0.1,0.1,0.2,0.2c0.1,0,0.2,0.1,0.3,0.1c0.1,0,0.2,0,0.3,0
	c0.2,0,0.3-0.1,0.4-0.2c0.1-0.1,0.1-0.2,0.1-0.4c0-1.4,0-2.8,0-4.2c0-0.1,0-0.2-0.1-0.3c-0.1-0.1-0.1-0.2-0.2-0.2
	C11.2,4,11.1,4,10.9,4c-0.1,0-0.3,0-0.4,0.1c-0.1,0.1-0.2,0.1-0.2,0.2c-0.1,0.2-0.1,0.4-0.1,0.6C10.2,5.4,10.2,6.1,10.2,6.7z"/>
<path class="st0" d="M13.9,20.8c0-0.7,0-1.4,0-2.1c0-0.3,0.1-0.5,0.4-0.5c0.1,0,0.2,0,0.3,0c0.1,0,0.2,0.1,0.2,0.3
	c0.1,0.2,0.1,0.3,0.1,0.5c0,1.2,0,2.5,0,3.7c0,0.1,0,0.2,0,0.2c0,0.3-0.1,0.5-0.4,0.5c-0.1,0-0.2,0-0.3,0c-0.1-0.1-0.2-0.1-0.3-0.2
	c0-0.1-0.1-0.2,0-0.2C13.9,22.2,13.9,21.5,13.9,20.8z"/>
<path class="st0" d="M20.8,19.7h-1.6c0-0.4,0-0.7,0.1-1.1c0-0.1,0-0.1,0.1-0.2c0-0.1,0.1-0.1,0.2-0.2c0.1,0,0.1-0.1,0.2-0.1
	c0.1,0,0.2,0,0.3,0c0.2,0,0.3,0.1,0.5,0.2c0.1,0.1,0.2,0.2,0.2,0.4C20.8,19,20.8,19.4,20.8,19.7z"/>
</svg>
